<svg xmlns="http://www.w3.org/2000/svg" width="363.609" height="89.752"><g id="Logo" transform="translate(.001)"><path id="S-Logo_2" data-name="S-Logo 2" d="M0 13.693C0 6.132 6.383 0 14.256 0a14.94 14.94 0 011.5.076 13.913 13.913 0 0112.769 13.605c0 7.563-6.381 13.693-14.261 13.693S0 21.251 0 13.693z" transform="translate(90.903)" fill="#fefefe"/><path id="S-Logo" d="M12.045 25.756a13.588 13.588 0 01-9.481-5.268l21.781-5.995c.313-.083.234-.369-.026-.351l-9.136.611a5.754 5.754 0 002.151-4.678C17.09 6.8 13.617 3.607 7.161 1.5A13.928 13.928 0 0111.225.177a14.276 14.276 0 013.641-.109 13.237 13.237 0 0111.855 10.7 12.97 12.97 0 01-11.035 14.87 13.963 13.963 0 01-2.252.183q-.702.004-1.389-.065zM.188 15.052A12.723 12.723 0 016.265 2 10.409 10.409 0 019.69 13.209c-1.082 3.918-4.136 5.673-7.606 6.6a12.558 12.558 0 01-1.896-4.757z" transform="translate(91.709 .777)" fill="#c90c0f"/><path id="S-S" d="M0 10.433V8.376a7.512 7.512 0 002.976.724c1.258 0 1.9-.411 1.9-1.207 0-.932-.857-1.034-2.576-1.743A3.172 3.172 0 01.019 3.075C.019.985 1.677 0 3.981 0a8.9 8.9 0 012.847.483V2.49a7.074 7.074 0 00-2.666-.574c-1.133 0-1.662.4-1.662 1.09 0 .724.638.947 1.79 1.366 1.477.706 3.191 1.015 3.191 3.437 0 2.087-1.734 3.226-4.052 3.226A8.925 8.925 0 010 10.433" transform="translate(265.222 8.17)" fill="#1c1e23"/><path id="S-E" d="M0 10.72V0h7v.973A1.054 1.054 0 015.922 2H2.583v2.309h3.75v1.785h-3.75V8.72H7v2z" transform="translate(256.153 8.337)" fill="#1c1e23"/><path id="S-N" d="M0 0h1.6a2.22 2.22 0 011.867 1l3.116 4.8a17.233 17.233 0 011 1.736h.057A26.288 26.288 0 017.587 5.9V0h2.259v10.72H7.017l-3.792-5.8a24.372 24.372 0 01-.978-1.656h-.038c.019.464.057 1.019.057 1.532v5.92H0z" transform="translate(243.938 8.337)" fill="#1c1e23"/><path id="S-I" d="M.291 10.716V0h2.584v10.716z" transform="translate(238.704 8.34)" fill="#1c1e23"/><path id="S-L" d="M0 10.723V0h1.258a1.307 1.307 0 011.325 1.275v7.516H6.7v1.932z" transform="translate(230.631 8.333)" fill="#1c1e23"/><g id="S-R" transform="translate(219.603 8.337)"><path id="Fill-19-path" d="M7.742 10.72A2.234 2.234 0 015.861 9.7L3.852 6.52H2.579v4.2H0V0h4.6a3.947 3.947 0 012.749.883 3.048 3.048 0 01.967 2.37A3.133 3.133 0 017.9 4.766a2.884 2.884 0 01-1.431 1.2l-.151.068 3.135 4.686z" fill="#1c1e23"/><path id="Fill-19-path-2" data-name="Fill-19-path" d="M.186 3.221h1.5a1.631 1.631 0 001.23-.421 1.474 1.474 0 00.408-1.072 1.519 1.519 0 00-.4-1.09A1.626 1.626 0 001.689.21H.186z" transform="translate(2.395 1.684)" fill="#fff"/></g><path id="S-I-2" data-name="S-I" d="M.291 10.716h2.584V0H.291z" transform="translate(214.361 8.342)" fill="#1c1e23"/><g id="S-A" transform="translate(201.792 8.337)"><path id="Fill-20-path" d="M7.176 0H4.211L0 10.72h1.858A1.08 1.08 0 002.893 10l.434-1.256h4.532l.661 1.976h2.8z" fill="#1c1e23"/><path id="Fill-20-path-2" data-name="Fill-20-path" d="M.171 4.437l1.016-2.709c.223-.611.449-1.253.6-1.728h.038c.132.491.359 1.1.582 1.728l.978 2.709z" transform="translate(3.816 2.377)" fill="#fff"/></g><path id="S-H" d="M7.285 10.72v-4.5h-4.7v4.5H0V0h2.583v4.271h4.7V0h2.6v10.72z" transform="translate(186.018 8.337)" fill="#1c1e23"/><path id="S-S-2" data-name="S-S" d="M0 10.433V8.376a7.512 7.512 0 002.976.724c1.258 0 1.9-.411 1.9-1.207 0-.932-.857-1.034-2.576-1.743A3.172 3.172 0 01.019 3.075C.019.985 1.677 0 3.981 0a8.926 8.926 0 012.847.483V2.49a7.091 7.091 0 00-2.666-.574C3.029 1.917 2.5 2.317 2.5 3c0 .728.638.951 1.79 1.37 1.477.706 3.191 1.015 3.191 3.434 0 2.09-1.734 3.23-4.052 3.23A8.925 8.925 0 010 10.433" transform="translate(176.418 8.17)" fill="#1c1e23"/><path id="S-I-3" data-name="S-I" d="M.291 10.72h2.584V0H.291z" transform="translate(171.424 8.338)" fill="#1c1e23"/><path id="S-K" d="M2.583 5.728l.087.106 3.3 4.075a2.227 2.227 0 001.737.819h2.056L5.038 4.962l-.068-.087.068-.083L8.924 0H6.239L2.674 4.622l-.091.109V0H0v10.723h2.583v-5z" transform="translate(160.535 8.332)" fill="#1c1e23"/><g id="S-R-2" data-name="S-R" transform="translate(149.429 8.337)"><path id="Fill-14-path" d="M7.742 10.72A2.234 2.234 0 015.861 9.7L3.852 6.52H2.579v4.2H0V0h4.6a3.947 3.947 0 012.749.883 3.053 3.053 0 01.967 2.37A3.158 3.158 0 017.9 4.769a2.9 2.9 0 01-1.431 1.2l-.151.068 3.135 4.683z" fill="#1c1e23"/><path id="Fill-14-path-2" data-name="Fill-14-path" d="M.186 3.224h1.5a1.646 1.646 0 001.23-.424 1.489 1.489 0 00.408-1.075 1.525 1.525 0 00-.4-1.09A1.626 1.626 0 001.689.209H.186z" transform="translate(2.395 1.685)" fill="#fff"/></g><path id="S-U" d="M0 0v6.712a4.79 4.79 0 00.34 1.906A3.229 3.229 0 001.3 9.9a4.122 4.122 0 001.5.732 7.752 7.752 0 001.968.234 7.538 7.538 0 001.949-.234A3.618 3.618 0 008.146 9.9a3.278 3.278 0 00.9-1.283 5.08 5.08 0 00.317-1.905V0h-2.41v6.641a2.4 2.4 0 01-.521 1.622 2.08 2.08 0 01-1.666.619 2.086 2.086 0 01-1.654-.619 2.377 2.377 0 01-.529-1.622V0z" transform="translate(137.678 8.337)" fill="#1c1e23"/><path id="S-T" d="M3.036 10.723V2H0V0h8.668v.962A1.062 1.062 0 017.584 2H5.616v8.724z" transform="translate(127.198 8.336)" fill="#1c1e23"/><g id="H" transform="translate(0 -.001)"><path id="Fill-24" d="M37.37 26.556H5.914v24.37H0V0h5.914v21.533H37.37V0h5.839v50.926H37.37z" transform="translate(-.001 38.1)" fill="#1c1e23"/></g><g id="O" transform="translate(54.084 37.373)"><path id="Fill-25-path" d="M47.073 7.531a24.674 24.674 0 017.886 18.587 24.741 24.741 0 01-8 18.658 27.355 27.355 0 01-19.6 7.6 27.19 27.19 0 01-19.473-7.49A24.566 24.566 0 010 26.333a24.856 24.856 0 018-18.7A27.3 27.3 0 0127.6 0a27.1 27.1 0 0119.473 7.531" fill="#1c1e23"/><path id="Fill-25-path-2" data-name="Fill-25-path" d="M36.985 35.939A20.037 20.037 0 0043.2 20.952a19.967 19.967 0 00-6.215-14.915A21.223 21.223 0 0021.6 0 21.229 21.229 0 006.213 6.037 19.964 19.964 0 000 20.952a20.034 20.034 0 006.213 14.987A21.229 21.229 0 0021.6 41.976a21.223 21.223 0 0015.386-6.037" transform="translate(5.916 5.237)" fill="#fff"/></g><g id="L" transform="translate(0 -.001)"><path id="Fill-26" d="M0 50.926V0h5.911v45.9h29.337v5.022z" transform="translate(119.956 38.1)" fill="#1c1e23"/></g><g id="I" transform="translate(0 -.001)"><path id="Fill-27" d="M0 50.926h6.062V0H0z" transform="translate(163.433 38.098)" fill="#1c1e23"/></g><g id="D" transform="translate(183.621 38.098)"><path id="Fill-28-path" d="M16.98 0q12.656 0 20.768 7.241a23.3 23.3 0 018.109 18.149 23.378 23.378 0 01-8.222 18.224q-8.22 7.312-20.885 7.312H0V0z" fill="#1c1e23"/><path id="Fill-28-path-2" data-name="Fill-28-path" d="M0 41.1h11.372q9.852 0 16.3-5.89a19.114 19.114 0 006.443-14.7 19 19 0 00-6.443-14.658Q21.225 0 11.372 0H0z" transform="translate(5.911 4.95)" fill="#fff"/></g><g id="A" transform="translate(231.009 38.099)"><path id="Fill-29-path" d="M51.544 50.926H45.1l-6.519-14.7H12.656l-6.515 14.7H0L22.815 0h5.911z" fill="#1c1e23"/><path id="Fill-29-path-2" data-name="Fill-29-path" d="M0 25.246h22.362L11.221 0z" transform="translate(14.403 6.403)" fill="#fff"/></g><g id="Y" transform="translate(0 -.001)"><path id="Fill-30" d="M21.754 30.555L0 0h6.976l17.811 25.393L42.677 0h6.594L27.593 30.555v20.371h-5.839z" transform="translate(276.769 38.098)" fill="#1c1e23"/></g><g id="S" transform="translate(327.223 37.373)"><path id="Fill-31" d="M36.385 38.192a12.726 12.726 0 01-4.778 10.15q-4.77 4.035-12.886 4.037a30.275 30.275 0 01-6.707-.728 26.4 26.4 0 01-5.3-1.709 32.335 32.335 0 01-3.679-2 15.852 15.852 0 01-2.351-1.747L0 45.47l3.716-3.784.646.619a18.469 18.469 0 001.93 1.419A22.446 22.446 0 009.476 45.5a24.538 24.538 0 004.358 1.415 22.907 22.907 0 005.5.657 12.224 12.224 0 008-2.509 7.726 7.726 0 003.067-6.218 8.43 8.43 0 00-3.1-6.622q-3.11-2.694-10.918-5.237Q2.5 22.552 2.5 13.168a11.64 11.64 0 014.627-9.421Q11.749 0 19.408 0a29.469 29.469 0 015.873.581 20.407 20.407 0 014.66 1.456 34 34 0 013.222 1.747 17.78 17.78 0 012.085 1.453l.6.581L32.14 9.6a3.112 3.112 0 00-.533-.547 19.239 19.239 0 00-1.59-1.128 21.528 21.528 0 00-2.576-1.453 18.216 18.216 0 00-3.49-1.166 18.742 18.742 0 00-4.4-.509q-5.308 0-8.222 2.366a6.941 6.941 0 00-2.919 5.49 7.263 7.263 0 002.765 5.713q2.765 2.366 9.064 4.332 16.14 4.947 16.142 15.493" fill="#1c1e23"/></g></g></svg>